<?xml version="1.0" encoding="UTF-8" standalone="no"?>
<svg
   xmlns:dc="http://purl.org/dc/elements/1.1/"
   xmlns:cc="http://creativecommons.org/ns#"
   xmlns:rdf="http://www.w3.org/1999/02/22-rdf-syntax-ns#"
   xmlns:svg="http://www.w3.org/2000/svg"
   xmlns="http://www.w3.org/2000/svg"
   xmlns:sodipodi="http://sodipodi.sourceforge.net/DTD/sodipodi-0.dtd"
   xmlns:inkscape="http://www.inkscape.org/namespaces/inkscape"
   width="210mm"
   height="297mm"
   viewBox="0 0 210 297"
   version="1.1"
   id="svg1037"
   inkscape:version="1.0.2 (1.0.2+r75+1)"
   sodipodi:docname="clef.svg">
  <defs
     id="defs1031" />
  <sodipodi:namedview
     id="base"
     pagecolor="#ffffff"
     bordercolor="#666666"
     borderopacity="1.0"
     inkscape:pageopacity="0.0"
     inkscape:pageshadow="2"
     inkscape:zoom="0.49497475"
     inkscape:cx="94.047675"
     inkscape:cy="592.16286"
     inkscape:document-units="mm"
     inkscape:current-layer="g995"
     inkscape:document-rotation="0"
     showgrid="false"
     inkscape:window-width="1853"
     inkscape:window-height="1025"
     inkscape:window-x="67"
     inkscape:window-y="27"
     inkscape:window-maximized="1" />
  <metadata
     id="metadata1034">
    <rdf:RDF>
      <cc:Work
         rdf:about="">
        <dc:format>image/svg+xml</dc:format>
        <dc:type
           rdf:resource="http://purl.org/dc/dcmitype/StillImage" />
        <dc:title></dc:title>
      </cc:Work>
    </rdf:RDF>
  </metadata>
  <g
     inkscape:label="Layer 1"
     inkscape:groupmode="layer"
     id="layer1">
    <g
       id="g1001"
       transform="matrix(0.26417108,0,0,0.26417108,32.318507,80.113725)"
       style="fill:#000000">
      <g
         id="g995"
         style="fill:#000000">
        <path
           d="m 256.399,212.822 c -41.749,0 -75.714,-33.965 -75.714,-75.714 4.159,-100.445 147.284,-100.416 151.428,0.001 0,41.748 -33.965,75.713 -75.714,75.713 z m 0,-121.428 c -25.207,0 -45.714,20.507 -45.714,45.714 2.511,60.646 88.926,60.628 91.428,0 0,-25.207 -20.507,-45.714 -45.714,-45.714 z"
           id="path993"
           style="fill:#000000" />
      </g>
      <g
         id="g999"
         style="fill:#000000">
        <path
           d="M 355.732,512.799 H 211.397 V 266.658 C 66.978,214.095 102.101,2.666 256.401,0 c 154.322,2.678 189.4,214.121 45,266.658 v 44.248 h 33.33 v 85.003 h -33.33 v 31.886 h 54.331 z m -114.335,-30 h 84.335 v -25.004 h -54.331 v -91.886 h 33.33 v -25.003 h -33.33 v -97.091 l 11.326,-2.861 c 47.562,-12.016 80.78,-54.719 80.78,-103.846 -5.884,-142.095 -208.355,-142.051 -214.216,0.001 0,49.126 33.218,91.829 80.78,103.845 l 11.326,2.861 z"
           id="path997"
           style="fill:#000000" />
      </g>
    </g>
  </g>
</svg>
