<svg id="Capa_1" enable-background="new 0 0 512 512" height="512" viewBox="0 0 512 512" width="512" xmlns="http://www.w3.org/2000/svg"><g><g><g><circle cx="357.527" cy="78.315" fill="#fe255f" r="44.026"/><circle cx="347.609" cy="57.047" fill="#fc709b" r="20.329"/><path d="m398.893 93.373c-8.314 22.842-33.574 34.63-56.427 26.312-22.842-8.314-34.626-33.585-26.312-56.427.297-.817.612-1.616.954-2.393-1.254 14.785 7.45 29.161 22.061 34.479 17.501 6.37 36.844-2.65 43.21-20.14 5.318-14.61-.094-30.505-12.211-39.055.805.233 1.608.502 2.415.796 22.85 8.318 34.627 33.575 26.31 56.428z" fill="#e01152"/></g><g><path d="m278.57 110.804h27.062v294.532h-27.062z" fill="#fff7c7" transform="matrix(.94 .342 -.342 .94 105.881 -84.341)"/><g fill="#fff370"><path d="m313.558 126.398h43.086v27.062h-43.086z" transform="matrix(.342 -.94 .94 .342 88.999 406.962)"/><path d="m277.534 225.371h43.086v27.062h-43.086z" transform="matrix(.342 -.94 .94 .342 -27.708 438.234)"/></g></g><path d="m353.987 148.544-38.89-14.155c-7.492-2.727-11.354-11.01-8.628-18.502 2.727-7.492 11.01-11.354 18.502-8.627l38.89 14.155c7.492 2.727 11.354 11.01 8.628 18.502-2.727 7.491-11.011 11.353-18.502 8.627z" fill="#ffaf40"/><path d="m316.99 250.191-38.89-14.155c-7.492-2.727-11.354-11.01-8.628-18.502 2.727-7.492 11.01-11.354 18.502-8.627l38.89 14.155c7.492 2.727 11.354 11.01 8.627 18.502-2.726 7.491-11.009 11.353-18.501 8.627z" fill="#ffaf40"/><g fill="#ffc751"><path d="m298.138 243.329-7.47-2.719c-7.492-2.727-11.354-11.01-8.627-18.502 2.727-7.492 11.01-11.354 18.502-8.627l7.47 2.719c7.492 2.727 11.354 11.01 8.627 18.502-2.727 7.491-11.011 11.354-18.502 8.627z"/><path d="m335.135 141.682-7.47-2.719c-7.492-2.727-11.354-11.01-8.627-18.502 2.727-7.492 11.01-11.354 18.502-8.627l7.47 2.719c7.492 2.727 11.354 11.01 8.628 18.502-2.728 7.491-11.012 11.354-18.503 8.627z"/></g></g><g><g><path d="m94.323 290.01-71.564 71.564c-1.946 1.946-3.039 4.585-3.039 7.337v26.365c0 5.73 4.645 10.376 10.376 10.376h97.93c5.73 0 10.376-4.645 10.376-10.376v-97.93c0-5.73-4.645-10.376-10.376-10.376h-26.366c-2.752.001-5.391 1.094-7.337 3.04z" fill="#29e088"/><path d="m135.363 290.015-112.598 112.599c-1.886-1.871-3.045-4.468-3.045-7.344v-26.354c0-2.759 1.093-5.393 3.037-7.337l71.571-71.571c1.937-1.937 4.556-3.03 7.308-3.037h.029 26.354c.176 0 .359.007.536.007 2.663.139 5.047 1.276 6.808 3.037z" fill="#79ff79"/><path d="m104.593 320.786 32.003 80.338c-.734 1.071-1.665 2.003-2.729 2.729l-80.331-32.01-11.695-29.347 33.405-33.405z" fill="#79ff79"/><path d="m104.586 320.785-29.346-11.693-33.399 33.399 11.693 29.347z" fill="#c2ffc2"/></g><g><path d="m410.603 301.266-97.181-28.263c-2.642-.768-5.482-.456-7.894.869l-23.108 12.695c-5.022 2.759-6.857 9.068-4.098 14.09l47.154 85.83c2.759 5.022 9.067 6.857 14.09 4.098l85.83-47.154c5.022-2.759 6.857-9.067 4.098-14.09l-12.695-23.108c-1.325-2.412-3.554-4.199-6.196-4.967z" fill="#7cbaf7"/><path d="m430.359 337.238-152.903-44.469c.732-2.553 2.45-4.82 4.971-6.205l23.098-12.689c2.418-1.328 5.253-1.639 7.893-.871l97.189 28.266c2.63.765 4.85 2.534 6.181 4.942.007.013.007.013.014.026l12.69 23.098c.085.154.167.319.252.473 1.159 2.4 1.31 5.038.615 7.429z" fill="#a9cffc"/><path d="m388.574 325.085-55.002 66.732c-1.292-.127-2.557-.495-3.706-1.078l-10.624-85.819 20.09-24.381 45.362 13.193z" fill="#a9cffc"/><path d="m388.572 325.079-3.883-31.35-45.354-13.19-20.09 24.378z" fill="#cbe1ff"/></g><g><g><g><g><path d="m92.656 508.124h-75.527c-9.46 0-17.129-7.669-17.129-17.129 0-9.46 7.669-17.129 17.129-17.129h75.527c9.46 0 17.129 7.669 17.129 17.129.001 9.46-7.669 17.129-17.129 17.129z" fill="#ffc751"/><path d="m61.931 473.865h-23.842c-9.46 0-17.129 7.669-17.129 17.129 0 9.46 7.669 17.129 17.129 17.129h23.842c9.46 0 17.129-7.669 17.129-17.129 0-9.46-7.669-17.129-17.129-17.129z" fill="#ffe059"/></g><g><path d="m92.656 473.865h-75.527c-9.46 0-17.129-7.669-17.129-17.129 0-9.46 7.669-17.129 17.129-17.129h75.527c9.46 0 17.129 7.669 17.129 17.129.001 9.46-7.669 17.129-17.129 17.129z" fill="#ff993a"/><path d="m61.931 439.607h-23.842c-9.46 0-17.129 7.669-17.129 17.129 0 9.46 7.669 17.129 17.129 17.129h23.842c9.46 0 17.129-7.669 17.129-17.129 0-9.46-7.669-17.129-17.129-17.129z" fill="#ffaf40"/></g><g><path d="m92.656 439.607h-75.527c-9.46 0-17.129-7.669-17.129-17.13 0-9.46 7.669-17.129 17.129-17.129h75.527c9.46 0 17.129 7.669 17.129 17.129.001 9.461-7.669 17.13-17.129 17.13z" fill="#ffc751"/><path d="m61.931 405.348h-23.842c-9.46 0-17.129 7.669-17.129 17.129 0 9.46 7.669 17.129 17.129 17.129h23.842c9.46 0 17.129-7.669 17.129-17.129 0-9.46-7.669-17.129-17.129-17.129z" fill="#ffe059"/></g></g><g><g><path d="m171.716 508.124h-75.527c-9.46 0-17.129-7.669-17.129-17.129 0-9.46 7.669-17.129 17.129-17.129h75.527c9.46 0 17.129 7.669 17.129 17.129.001 9.46-7.668 17.129-17.129 17.129z" fill="#ff993a"/><path d="m140.991 473.865h-23.842c-9.46 0-17.129 7.669-17.129 17.129 0 9.46 7.669 17.129 17.129 17.129h23.842c9.46 0 17.129-7.669 17.129-17.129 0-9.46-7.669-17.129-17.129-17.129z" fill="#ffaf40"/></g><g><path d="m171.716 473.865h-75.527c-9.46 0-17.129-7.669-17.129-17.129 0-9.46 7.669-17.129 17.129-17.129h75.527c9.46 0 17.129 7.669 17.129 17.129.001 9.46-7.668 17.129-17.129 17.129z" fill="#ffc751"/><path d="m140.991 439.607h-23.842c-9.46 0-17.129 7.669-17.129 17.129 0 9.46 7.669 17.129 17.129 17.129h23.842c9.46 0 17.129-7.669 17.129-17.129 0-9.46-7.669-17.129-17.129-17.129z" fill="#ffe059"/></g><g><path d="m171.716 439.607h-75.527c-9.46 0-17.129-7.669-17.129-17.129 0-9.46 7.669-17.129 17.129-17.129h75.527c9.46 0 17.129 7.669 17.129 17.129.001 9.46-7.668 17.129-17.129 17.129z" fill="#ff993a"/><path d="m140.991 405.348h-23.842c-9.46 0-17.129 7.669-17.129 17.129 0 9.46 7.669 17.129 17.129 17.129h23.842c9.46 0 17.129-7.669 17.129-17.129 0-9.46-7.669-17.129-17.129-17.129z" fill="#ffaf40"/></g><g><path d="m171.716 405.348h-75.527c-9.46 0-17.129-7.669-17.129-17.129 0-9.46 7.669-17.129 17.129-17.129h75.527c9.46 0 17.129 7.669 17.129 17.129.001 9.46-7.668 17.129-17.129 17.129z" fill="#ffc751"/><path d="m140.991 371.089h-23.842c-9.46 0-17.129 7.669-17.129 17.129 0 9.46 7.669 17.129 17.129 17.129h23.842c9.46 0 17.129-7.669 17.129-17.129 0-9.46-7.669-17.129-17.129-17.129z" fill="#ffe059"/></g></g></g><g><g><g><path d="m249.827 508.124h-75.527c-9.46 0-17.129-7.669-17.129-17.129 0-9.46 7.669-17.129 17.129-17.129h75.527c9.46 0 17.129 7.669 17.129 17.129.001 9.46-7.668 17.129-17.129 17.129z" fill="#ffc751"/><path d="m219.102 473.865h-23.842c-9.46 0-17.129 7.669-17.129 17.129 0 9.46 7.669 17.129 17.129 17.129h23.842c9.46 0 17.129-7.669 17.129-17.129 0-9.46-7.669-17.129-17.129-17.129z" fill="#ffe059"/></g><g><path d="m249.827 473.865h-75.527c-9.46 0-17.129-7.669-17.129-17.129 0-9.46 7.669-17.129 17.129-17.129h75.527c9.46 0 17.129 7.669 17.129 17.129.001 9.46-7.668 17.129-17.129 17.129z" fill="#ff993a"/><path d="m219.102 439.607h-23.842c-9.46 0-17.129 7.669-17.129 17.129 0 9.46 7.669 17.129 17.129 17.129h23.842c9.46 0 17.129-7.669 17.129-17.129 0-9.46-7.669-17.129-17.129-17.129z" fill="#ffaf40"/></g><g><path d="m249.827 439.607h-75.527c-9.46 0-17.129-7.669-17.129-17.129 0-9.46 7.669-17.129 17.129-17.129h75.527c9.46 0 17.129 7.669 17.129 17.129.001 9.46-7.668 17.129-17.129 17.129z" fill="#ffc751"/><path d="m219.102 405.348h-23.842c-9.46 0-17.129 7.669-17.129 17.129 0 9.46 7.669 17.129 17.129 17.129h23.842c9.46 0 17.129-7.669 17.129-17.129 0-9.46-7.669-17.129-17.129-17.129z" fill="#ffe059"/></g><g><path d="m249.827 405.348h-75.527c-9.46 0-17.129-7.669-17.129-17.129 0-9.46 7.669-17.129 17.129-17.129h75.527c9.46 0 17.129 7.669 17.129 17.129.001 9.46-7.668 17.129-17.129 17.129z" fill="#ff993a"/><path d="m219.102 371.089h-23.842c-9.46 0-17.129 7.669-17.129 17.129 0 9.46 7.669 17.129 17.129 17.129h23.842c9.46 0 17.129-7.669 17.129-17.129 0-9.46-7.669-17.129-17.129-17.129z" fill="#ffaf40"/></g><g><path d="m249.827 371.089h-75.527c-9.46 0-17.129-7.669-17.129-17.129 0-9.46 7.669-17.129 17.129-17.129h75.527c9.46 0 17.129 7.669 17.129 17.129.001 9.46-7.668 17.129-17.129 17.129z" fill="#ffc751"/><path d="m219.102 336.83h-23.842c-9.46 0-17.129 7.669-17.129 17.129 0 9.46 7.669 17.129 17.129 17.129h23.842c9.46 0 17.129-7.669 17.129-17.129 0-9.459-7.669-17.129-17.129-17.129z" fill="#ffe059"/></g><g><path d="m249.827 336.831h-75.527c-9.46 0-17.129-7.669-17.129-17.129 0-9.46 7.669-17.129 17.129-17.129h75.527c9.46 0 17.129 7.669 17.129 17.129.001 9.459-7.668 17.129-17.129 17.129z" fill="#ff993a"/><path d="m219.102 302.572h-23.842c-9.46 0-17.129 7.669-17.129 17.129 0 9.46 7.669 17.129 17.129 17.129h23.842c9.46 0 17.129-7.669 17.129-17.129 0-9.46-7.669-17.129-17.129-17.129z" fill="#ffaf40"/></g></g><g><g><path d="m328.887 508.124h-75.527c-9.46 0-17.129-7.669-17.129-17.129 0-9.46 7.669-17.129 17.129-17.129h75.527c9.46 0 17.129 7.669 17.129 17.129.001 9.46-7.668 17.129-17.129 17.129z" fill="#ff993a"/><path d="m298.162 473.865h-23.842c-9.46 0-17.129 7.669-17.129 17.129 0 9.46 7.669 17.129 17.129 17.129h23.842c9.46 0 17.129-7.669 17.129-17.129 0-9.46-7.669-17.129-17.129-17.129z" fill="#ffaf40"/></g><g><path d="m328.887 473.865h-75.527c-9.46 0-17.129-7.669-17.129-17.129 0-9.46 7.669-17.129 17.129-17.129h75.527c9.46 0 17.129 7.669 17.129 17.129.001 9.46-7.668 17.129-17.129 17.129z" fill="#ffc751"/><path d="m298.162 439.607h-23.842c-9.46 0-17.129 7.669-17.129 17.129 0 9.46 7.669 17.129 17.129 17.129h23.842c9.46 0 17.129-7.669 17.129-17.129 0-9.46-7.669-17.129-17.129-17.129z" fill="#ffe059"/></g><g><path d="m328.887 439.607h-75.527c-9.46 0-17.129-7.669-17.129-17.129 0-9.46 7.669-17.129 17.129-17.129h75.527c9.46 0 17.129 7.669 17.129 17.129.001 9.46-7.668 17.129-17.129 17.129z" fill="#ff993a"/><path d="m298.162 405.348h-23.842c-9.46 0-17.129 7.669-17.129 17.129 0 9.46 7.669 17.129 17.129 17.129h23.842c9.46 0 17.129-7.669 17.129-17.129 0-9.46-7.669-17.129-17.129-17.129z" fill="#ffaf40"/></g><g><path d="m328.887 405.348h-75.527c-9.46 0-17.129-7.669-17.129-17.129 0-9.46 7.669-17.129 17.129-17.129h75.527c9.46 0 17.129 7.669 17.129 17.129.001 9.46-7.668 17.129-17.129 17.129z" fill="#ffc751"/><path d="m298.162 371.089h-23.842c-9.46 0-17.129 7.669-17.129 17.129 0 9.46 7.669 17.129 17.129 17.129h23.842c9.46 0 17.129-7.669 17.129-17.129 0-9.46-7.669-17.129-17.129-17.129z" fill="#ffe059"/></g><g><path d="m328.887 371.089h-75.527c-9.46 0-17.129-7.669-17.129-17.129 0-9.46 7.669-17.129 17.129-17.129h75.527c9.46 0 17.129 7.669 17.129 17.129.001 9.46-7.668 17.129-17.129 17.129z" fill="#ff993a"/><path d="m298.162 336.83h-23.842c-9.46 0-17.129 7.669-17.129 17.129 0 9.46 7.669 17.129 17.129 17.129h23.842c9.46 0 17.129-7.669 17.129-17.129 0-9.459-7.669-17.129-17.129-17.129z" fill="#ffaf40"/></g></g></g><g><g><g><path d="m406.998 508.124h-75.527c-9.46 0-17.129-7.669-17.129-17.129 0-9.46 7.669-17.129 17.129-17.129h75.527c9.46 0 17.129 7.669 17.129 17.129.001 9.46-7.668 17.129-17.129 17.129z" fill="#ffc751"/><path d="m376.273 473.865h-23.842c-9.46 0-17.129 7.669-17.129 17.129 0 9.46 7.669 17.129 17.129 17.129h23.842c9.46 0 17.129-7.669 17.129-17.129 0-9.46-7.669-17.129-17.129-17.129z" fill="#ffe059"/></g><g><path d="m406.998 473.865h-75.527c-9.46 0-17.129-7.669-17.129-17.129 0-9.46 7.669-17.129 17.129-17.129h75.527c9.46 0 17.129 7.669 17.129 17.129.001 9.46-7.668 17.129-17.129 17.129z" fill="#ff993a"/><path d="m376.273 439.607h-23.842c-9.46 0-17.129 7.669-17.129 17.129 0 9.46 7.669 17.129 17.129 17.129h23.842c9.46 0 17.129-7.669 17.129-17.129 0-9.46-7.669-17.129-17.129-17.129z" fill="#ffaf40"/></g><g><path d="m406.998 439.607h-75.527c-9.46 0-17.129-7.669-17.129-17.129 0-9.46 7.669-17.129 17.129-17.129h75.527c9.46 0 17.129 7.669 17.129 17.129.001 9.46-7.668 17.129-17.129 17.129z" fill="#ffc751"/><path d="m376.273 405.348h-23.842c-9.46 0-17.129 7.669-17.129 17.129 0 9.46 7.669 17.129 17.129 17.129h23.842c9.46 0 17.129-7.669 17.129-17.129 0-9.46-7.669-17.129-17.129-17.129z" fill="#ffe059"/></g><g><path d="m406.998 405.348h-75.527c-9.46 0-17.129-7.669-17.129-17.129 0-9.46 7.669-17.129 17.129-17.129h75.527c9.46 0 17.129 7.669 17.129 17.129.001 9.46-7.668 17.129-17.129 17.129z" fill="#ff993a"/><path d="m376.273 371.089h-23.842c-9.46 0-17.129 7.669-17.129 17.129 0 9.46 7.669 17.129 17.129 17.129h23.842c9.46 0 17.129-7.669 17.129-17.129 0-9.46-7.669-17.129-17.129-17.129z" fill="#ffaf40"/></g></g><g><g><path d="m486.059 508.124h-75.527c-9.46 0-17.129-7.669-17.129-17.129 0-9.46 7.669-17.129 17.129-17.129h75.527c9.46 0 17.129 7.669 17.129 17.129 0 9.46-7.669 17.129-17.129 17.129z" fill="#ff993a"/><path d="m455.333 473.865h-23.842c-9.46 0-17.129 7.669-17.129 17.129 0 9.46 7.669 17.129 17.129 17.129h23.842c9.46 0 17.129-7.669 17.129-17.129 0-9.46-7.669-17.129-17.129-17.129z" fill="#ffaf40"/></g><g><path d="m486.059 473.865h-75.527c-9.46 0-17.129-7.669-17.129-17.129 0-9.46 7.669-17.129 17.129-17.129h75.527c9.46 0 17.129 7.669 17.129 17.129 0 9.46-7.669 17.129-17.129 17.129z" fill="#ffc751"/><path d="m455.333 439.607h-23.842c-9.46 0-17.129 7.669-17.129 17.129 0 9.46 7.669 17.129 17.129 17.129h23.842c9.46 0 17.129-7.669 17.129-17.129 0-9.46-7.669-17.129-17.129-17.129z" fill="#ffe059"/></g></g></g></g><g><path d="m404.674 392.482 71.564 71.564c1.946 1.946 3.039 4.585 3.039 7.337v26.365c0 5.73-4.645 10.376-10.376 10.376h-97.93c-5.73 0-10.376-4.645-10.376-10.376v-97.93c0-5.73 4.645-10.376 10.376-10.376h26.365c2.753.001 5.392 1.094 7.338 3.04z" fill="#29e088"/><path d="m363.633 392.487 112.598 112.598c1.886-1.871 3.045-4.468 3.045-7.344v-26.354c0-2.759-1.093-5.393-3.037-7.337l-71.571-71.571c-1.937-1.937-4.556-3.03-7.308-3.037-.015 0-.015 0-.029 0h-26.354c-.176 0-.359.007-.536.007-2.662.14-5.047 1.278-6.808 3.038z" fill="#79ff79"/><path d="m394.404 423.258-32.003 80.338c.734 1.071 1.665 2.003 2.729 2.729l80.331-32.01 11.695-29.347-33.405-33.405z" fill="#79ff79"/><path d="m394.41 423.257 29.346-11.693 33.399 33.399-11.692 29.347z" fill="#c2ffc2"/></g></g><g><g><g><g><g><path d="m232.745 246.623c1.74-1.146 1.74-3.693 0-4.839-4.492-2.959-8.756-6.402-12.715-10.331s-7.429-8.161-10.411-12.619c-1.155-1.727-3.721-1.727-4.876 0-2.982 4.458-6.451 8.689-10.411 12.619-3.96 3.929-8.223 7.372-12.715 10.331-1.74 1.146-1.74 3.693 0 4.839 4.492 2.959 8.756 6.402 12.715 10.331 3.96 3.929 7.429 8.161 10.411 12.619 1.155 1.727 3.721 1.727 4.876 0 2.982-4.458 6.451-8.689 10.411-12.619 3.959-3.929 8.223-7.372 12.715-10.331z" fill="#ffe059"/></g></g><g><g><path d="m232.746 246.621c-4.491 2.959-8.754 6.401-12.716 10.332-3.961 3.931-7.429 8.162-10.411 12.619-1.156 1.724-3.718 1.724-4.874 0-2.982-4.457-6.45-8.688-10.411-12.619-.515-.512-1.038-1.016-1.568-1.512.699.058 1.406.088 2.121.088 13.592 0 24.673-10.712 25.13-24.091l.015.015c3.961 3.931 8.224 7.373 12.716 10.332 1.736 1.146 1.736 3.689-.002 4.836z" fill="#ffc751"/></g></g></g></g></g><g><g><g><g><g><path d="m257.542 206.54c1.287-.848 1.287-2.73 0-3.578-3.321-2.188-6.474-4.733-9.402-7.639-2.928-2.905-5.493-6.034-7.697-9.33-.854-1.277-2.751-1.277-3.605 0-2.205 3.296-4.77 6.425-7.697 9.33-2.928 2.905-6.08 5.451-9.402 7.639-1.287.848-1.287 2.73 0 3.578 3.321 2.188 6.474 4.733 9.402 7.639s5.493 6.034 7.697 9.33c.854 1.277 2.751 1.277 3.605 0 2.205-3.296 4.77-6.425 7.697-9.33s6.081-5.451 9.402-7.639z" fill="#ffe059"/></g></g><g><g><path d="m257.543 206.538c-3.321 2.188-6.473 4.733-9.402 7.639-2.929 2.907-5.493 6.035-7.698 9.33-.855 1.275-2.749 1.275-3.604 0-2.205-3.296-4.769-6.424-7.698-9.33-.381-.378-.768-.751-1.16-1.118.517.043 1.04.065 1.568.065 10.05 0 18.243-7.92 18.58-17.812l.011.011c2.929 2.907 6.081 5.451 9.402 7.639 1.286.848 1.286 2.728.001 3.576z" fill="#ffc751"/></g></g></g></g></g><g><g><g><g><g><path d="m510.865 391.546c1.513-.996 1.513-3.21 0-4.206-3.904-2.572-7.61-5.565-11.052-8.98s-6.457-7.093-9.049-10.968c-1.004-1.501-3.234-1.501-4.238 0-2.592 3.875-5.607 7.553-9.049 10.968s-7.148 6.408-11.052 8.98c-1.513.996-1.513 3.21 0 4.206 3.904 2.572 7.61 5.565 11.052 8.98s6.457 7.093 9.049 10.968c1.004 1.501 3.234 1.501 4.238 0 2.592-3.875 5.607-7.553 9.049-10.968 3.442-3.416 7.148-6.408 11.052-8.98z" fill="#79ff79"/></g></g><g><g><path d="m510.866 391.544c-3.904 2.572-7.609 5.564-11.052 8.98s-6.457 7.094-9.049 10.968c-1.005 1.499-3.232 1.499-4.237 0-2.592-3.874-5.606-7.551-9.049-10.968-.448-.445-.902-.883-1.363-1.315.608.051 1.222.076 1.843.076 11.814 0 21.446-9.311 21.842-20.94l.013.013c3.443 3.417 7.149 6.408 11.052 8.98 1.511.999 1.511 3.209 0 4.206z" fill="#29e088"/></g></g></g></g></g><g><g><g><g><g><path d="m66.534 265.877c1.513-.996 1.513-3.21 0-4.206-3.904-2.572-7.61-5.565-11.052-8.98s-6.457-7.093-9.049-10.968c-1.004-1.501-3.234-1.501-4.238 0-2.592 3.875-5.607 7.553-9.049 10.968s-7.148 6.408-11.052 8.98c-1.513.996-1.513 3.21 0 4.206 3.904 2.572 7.61 5.565 11.052 8.98s6.457 7.093 9.049 10.968c1.004 1.501 3.234 1.501 4.238 0 2.592-3.875 5.607-7.553 9.049-10.968s7.148-6.408 11.052-8.98z" fill="#79ff79"/></g></g><g><g><path d="m66.535 265.875c-3.904 2.572-7.609 5.564-11.052 8.98-3.443 3.417-6.457 7.094-9.049 10.968-1.005 1.499-3.232 1.499-4.237 0-2.592-3.874-5.606-7.551-9.049-10.968-.448-.445-.902-.883-1.363-1.315.608.051 1.222.076 1.843.076 11.814 0 21.446-9.311 21.842-20.94l.013.013c3.443 3.417 7.149 6.408 11.052 8.98 1.511.999 1.511 3.209 0 4.206z" fill="#29e088"/></g></g></g></g></g><g><g><g><g><g><path d="m484.1 342.044c1.28-.844 1.28-2.717 0-3.56-3.305-2.177-6.442-4.71-9.355-7.601s-5.466-6.004-7.66-9.284c-.85-1.271-2.738-1.271-3.588 0-2.194 3.28-4.746 6.393-7.66 9.284-2.913 2.891-6.05 5.424-9.355 7.601-1.28.844-1.28 2.717 0 3.56 3.305 2.177 6.442 4.71 9.355 7.601s5.466 6.004 7.66 9.284c.85 1.271 2.738 1.271 3.588 0 2.194-3.28 4.746-6.393 7.66-9.284 2.913-2.891 6.05-5.424 9.355-7.601z" fill="#cbe1ff"/></g></g><g><g><path d="m484.101 342.043c-3.305 2.177-6.441 4.709-9.356 7.602-2.915 2.892-5.466 6.005-7.66 9.285-.851 1.269-2.736 1.269-3.586 0-2.194-3.279-4.746-6.392-7.66-9.285-.379-.376-.764-.747-1.154-1.113.515.043 1.035.064 1.56.064 10 0 18.153-7.881 18.489-17.725l.011.011c2.915 2.892 6.051 5.425 9.356 7.602 1.278.844 1.278 2.715 0 3.559z" fill="#a9cffc"/></g></g></g></g></g><g><g><g><g><g><path d="m295.848 68.881c1.28-.844 1.28-2.717 0-3.56-3.305-2.177-6.442-4.71-9.355-7.601s-5.466-6.004-7.66-9.284c-.85-1.271-2.738-1.271-3.588 0-2.194 3.28-4.746 6.393-7.66 9.284-2.913 2.891-6.05 5.424-9.355 7.601-1.28.844-1.28 2.717 0 3.56 3.305 2.177 6.442 4.71 9.355 7.601s5.466 6.004 7.66 9.284c.85 1.271 2.738 1.271 3.588 0 2.194-3.28 4.746-6.393 7.66-9.284 2.913-2.891 6.05-5.424 9.355-7.601z" fill="#fc709b"/></g></g><g><g><path d="m295.849 68.88c-3.305 2.177-6.441 4.709-9.356 7.602-2.915 2.892-5.466 6.005-7.66 9.285-.85 1.269-2.736 1.269-3.586 0-2.194-3.279-4.746-6.392-7.66-9.285-.379-.376-.764-.747-1.154-1.113.515.043 1.035.064 1.56.064 10 0 18.153-7.881 18.489-17.725l.011.011c2.915 2.892 6.051 5.425 9.356 7.602 1.278.844 1.278 2.715 0 3.559z" fill="#fe255f"/></g></g></g></g></g><g><g><g><g><g><path d="m459.841 85.154c1.28-.844 1.28-2.717 0-3.56-3.305-2.177-6.442-4.71-9.355-7.601s-5.466-6.004-7.66-9.284c-.85-1.271-2.738-1.271-3.588 0-2.194 3.28-4.746 6.393-7.66 9.284-2.913 2.891-6.05 5.424-9.355 7.601-1.28.844-1.28 2.717 0 3.56 3.305 2.177 6.442 4.71 9.355 7.601s5.466 6.004 7.66 9.284c.85 1.271 2.738 1.271 3.588 0 2.194-3.28 4.746-6.393 7.66-9.284 2.913-2.891 6.05-5.424 9.355-7.601z" fill="#fe255f"/></g></g><g><g><path d="m459.842 85.153c-3.305 2.177-6.441 4.709-9.356 7.602-2.915 2.892-5.466 6.005-7.66 9.285-.851 1.269-2.736 1.269-3.586 0-2.194-3.279-4.746-6.392-7.66-9.285-.379-.376-.764-.747-1.154-1.113.515.043 1.035.064 1.56.064 10 0 18.153-7.881 18.489-17.725.005.005.005.005.011.011 2.915 2.892 6.051 5.425 9.356 7.602 1.279.844 1.279 2.715 0 3.559z" fill="#e01152"/></g></g></g></g></g><g><g><g><g><g><path d="m453.276 33.234c1.757-1.157 1.757-3.727 0-4.885-4.534-2.987-8.838-6.462-12.835-10.429-3.997-3.966-7.499-8.238-10.509-12.738-1.166-1.743-3.756-1.743-4.922 0-3.01 4.5-6.512 8.771-10.509 12.738-3.997 3.966-8.301 7.442-12.835 10.429-1.757 1.157-1.757 3.727 0 4.885 4.534 2.987 8.838 6.462 12.835 10.429 3.997 3.966 7.499 8.238 10.509 12.738 1.166 1.743 3.756 1.743 4.922 0 3.01-4.5 6.512-8.771 10.509-12.738 3.997-3.966 8.301-7.442 12.835-10.429z" fill="#fc709b"/></g></g><g><g><path d="m453.277 33.232c-4.534 2.987-8.837 6.461-12.836 10.429s-7.499 8.239-10.509 12.738c-1.167 1.741-3.753 1.741-4.92 0-3.01-4.499-6.511-8.77-10.509-12.738-.52-.516-1.048-1.025-1.583-1.527.706.059 1.42.088 2.141.088 13.72 0 24.906-10.813 25.367-24.318l.015.015c3.999 3.968 8.302 7.442 12.836 10.429 1.752 1.16 1.752 3.726-.002 4.884z" fill="#fe255f"/></g></g></g></g></g></g></svg>